<svg xmlns="http://www.w3.org/2000/svg" version="1.1" xmlns:xlink="http://www.w3.org/1999/xlink" xmlns:svgjs="http://svgjs.com/svgjs" width="512" height="512" x="0" y="0" viewBox="0 0 512 512" style="enable-background:new 0 0 512 512" xml:space="preserve" class=""><g><g xmlns="http://www.w3.org/2000/svg"><path d="m171.868 256c0-133.185 44.339-226 84.132-226l15.26-15.782-15.26-14.218c-32.959 0-62.78 28.369-83.969 79.881-19.451 47.287-30.163 109.834-30.163 176.119s10.712 128.832 30.163 176.119c21.189 51.512 51.01 79.881 83.969 79.881l15.26-16.902-15.26-13.098c-39.793 0-84.132-92.815-84.132-226z" fill="#1ea7a8" data-original="#1ea7a8" class=""></path><g><g><path d="m339.969 79.881c-21.189-51.512-51.01-79.881-83.969-79.881v30c39.793 0 84.132 92.815 84.132 226s-44.339 226-84.132 226v30c32.959 0 62.78-28.369 83.969-79.881 19.451-47.287 30.163-109.834 30.163-176.119s-10.712-128.832-30.163-176.119z" fill="#1a8092" data-original="#1a8092" class=""></path></g><g><path d="m452.749 270.471c-31.227-40.488-80.038-81.039-137.442-114.181-19.667-11.355-39.583-21.4-59.307-29.975v32.872c14.45 6.727 29.267 14.401 44.307 23.084 54.093 31.231 99.795 69.061 128.687 106.522 25.723 33.353 34.824 62.271 24.969 79.339-17.57 30.432-99.595 27.735-197.962-19.165v33.006c39.391 17.546 78.151 29.292 112.779 33.937 10.853 1.456 21.097 2.176 30.679 2.176 39.159 0 67.245-12.022 80.484-34.955 16.48-28.544 6.822-68.554-27.194-112.66z" fill="#0d5360" data-original="#0d5360" class=""></path><path d="m216.175 327.992c-54.093-31.231-99.795-69.061-128.687-106.522-25.723-33.353-34.824-62.271-24.969-79.339 7.532-13.045 26.905-20.004 54.335-20.004 35.583 0 84.727 11.726 139.146 37.06v-32.872c-37.846-16.454-74.983-27.493-108.298-31.962-55.204-7.405-94.684 4.235-111.164 32.779s-6.822 68.554 27.194 112.66c31.227 40.488 80.038 81.039 137.442 114.181 18.179 10.496 36.57 19.869 54.825 28v-33.006c-13.026-6.212-26.336-13.188-39.824-20.975z" fill="#1a8092" data-original="#1a8092" class=""></path></g><g><path d="m112.373 388.135c-27.422-.002-46.804-6.961-54.335-20.004-9.854-17.068-.753-45.986 24.969-79.339 28.891-37.461 74.593-75.291 128.687-106.522 15.04-8.683 29.857-16.358 44.307-23.084l15.26-21.929-15.261-10.943c-19.724 8.575-39.639 18.62-59.307 29.975-57.405 33.143-106.216 73.693-137.442 114.181-34.016 44.106-43.674 84.117-27.194 112.66 13.241 22.934 41.321 34.955 80.484 34.955 9.579 0 19.829-.72 30.679-2.176 34.629-4.646 73.388-16.392 112.779-33.937l15.26-28.042-15.259-4.956c-56.205 26.8-107.068 39.164-143.627 39.161z" fill="#28d3d5" data-original="#28d3d5" class=""></path><path d="m209.65 256c0 25.558 20.792 46.35 46.35 46.35l20.911-44.951-20.911-47.749c-25.558 0-46.35 20.792-46.35 46.35z" fill="#fcbe00" data-original="#fcbe00" class=""></path><path d="m302.35 256c0-25.558-20.792-46.35-46.35-46.35v92.7c25.558 0 46.35-20.792 46.35-46.35z" fill="#ff9000" data-original="#ff9000" class=""></path></g><path d="m475.461 127.131c-16.479-28.544-55.954-40.185-111.164-32.779-33.314 4.469-70.451 15.508-108.297 31.962v32.872c54.422-25.335 103.562-37.059 139.146-37.059 27.422 0 46.804 6.961 54.335 20.004 9.854 17.068.753 45.986-24.969 79.339-28.891 37.461-74.593 75.291-128.687 106.522-13.488 7.787-26.8 14.772-39.825 20.983v32.998c18.255-8.131 36.646-17.505 54.825-28 57.405-33.143 106.216-73.693 137.442-114.181 34.017-44.107 43.674-84.118 27.194-112.661z" fill="#1ea7a8" data-original="#1ea7a8" class=""></path></g></g></g></svg>